<svg xmlns="http://www.w3.org/2000/svg" width="13" height="13" viewBox="0 0 13 13">
  <g id="interface-arrows-button-right" transform="translate(0 13) rotate(-90)">
    <rect id="Rectángulo_38" data-name="Rectángulo 38" width="13" height="13" transform="translate(0 0)" fill="none"/>
    <path id="Trazado_131" data-name="Trazado 131" d="M.2.2a.684.684,0,0,0,0,.967l3.5,3.5a.171.171,0,0,1,0,.242L.2,8.408a.684.684,0,0,0,.965.967L5.028,5.513a1.026,1.026,0,0,0,0-1.452L1.165.2A.684.684,0,0,0,.2.2Z" transform="translate(3.945 1.633)" fill="#393939"/>
    <path id="Trazado_967" data-name="Trazado 967" d="M.2.2a.684.684,0,0,0,0,.967l3.5,3.5a.171.171,0,0,1,0,.242L.2,8.408a.684.684,0,0,0,.965.967L5.028,5.513a1.026,1.026,0,0,0,0-1.452L1.165.2A.684.684,0,0,0,.2.2Z" transform="translate(3.945 1.634)" fill="#393939"/>
  </g>
</svg>
