<svg xmlns="http://www.w3.org/2000/svg" xmlns:svgjs="http://svgjs.com/svgjs" xmlns:xlink="http://www.w3.org/1999/xlink" width="288" height="288"><svg xmlns="http://www.w3.org/2000/svg" width="288" height="288" fill="none" viewBox="0 0 64 64"><path fill="#00607a" d="M57 10.75H7C5.87364 10.7526 4.79417 11.2013 3.99771 11.9977C3.20126 12.7942 2.75264 13.8736 2.75 15V49C2.75264 50.1264 3.20126 51.2058 3.99771 52.0023C4.79417 52.7987 5.87364 53.2474 7 53.25H57C58.1264 53.2474 59.2058 52.7987 60.0023 52.0023C60.7987 51.2058 61.2474 50.1264 61.25 49V15C61.2474 13.8736 60.7987 12.7942 60.0023 11.9977C59.2058 11.2013 58.1264 10.7526 57 10.75ZM58.75 49C58.7474 49.4633 58.5622 49.9069 58.2345 50.2345C57.9069 50.5622 57.4633 50.7474 57 50.75H7C6.53668 50.7474 6.09309 50.5622 5.76546 50.2345C5.43784 49.9069 5.25263 49.4633 5.25 49V15C5.25263 14.5367 5.43784 14.0931 5.76546 13.7655C6.09309 13.4378 6.53668 13.2526 7 13.25H57C57.4633 13.2526 57.9069 13.4378 58.2345 13.7655C58.5622 14.0931 58.7474 14.5367 58.75 15V49Z" class="color000 svgShape"/><path fill="#00607a" d="M21.29 32.3899H20.54V23.7899C20.5384 23.5334 20.4593 23.2834 20.3129 23.0728 20.1665 22.8621 19.9598 22.7008 19.72 22.6099 19.4809 22.5206 19.22 22.5072 18.973 22.5716 18.726 22.6361 18.505 22.7752 18.34 22.9699L9.76996 32.8199C9.61187 33.0008 9.50976 33.2238 9.47603 33.4617 9.4423 33.6996 9.4784 33.9421 9.57996 34.1599 9.67707 34.3782 9.83565 34.5634 10.0363 34.6931 10.237 34.8227 10.4711 34.8911 10.71 34.8899H18V40.2099C18 40.5414 18.1317 40.8594 18.3661 41.0938 18.6005 41.3282 18.9184 41.4599 19.25 41.4599 19.5815 41.4599 19.8994 41.3282 20.1338 41.0938 20.3683 40.8594 20.5 40.5414 20.5 40.2099V34.8899H21.25C21.5815 34.8899 21.8994 34.7582 22.1338 34.5238 22.3683 34.2894 22.5 33.9714 22.5 33.6399 22.5 33.3084 22.3683 32.9904 22.1338 32.756 21.8994 32.5216 21.5815 32.3899 21.25 32.3899H21.29zM18.04 32.3899H13.46L18 27.1299 18.04 32.3899zM53.64 32.39H52.89V23.79C52.8907 23.5344 52.8135 23.2846 52.6688 23.0739 52.5242 22.8631 52.3188 22.7013 52.08 22.61 51.838 22.5241 51.5751 22.5154 51.3279 22.5853 51.0807 22.6552 50.8613 22.8001 50.7 23L42.13 32.85C41.9725 33.0311 41.87 33.2535 41.8346 33.4909 41.7992 33.7283 41.8323 33.9708 41.93 34.19 42.0299 34.4083 42.1905 34.5933 42.3927 34.7227 42.5948 34.8522 42.83 34.9207 43.07 34.92H50.39V40.24C50.39 40.5716 50.5217 40.8895 50.7562 41.1239 50.9906 41.3583 51.3085 41.49 51.64 41.49 51.9716 41.49 52.2895 41.3583 52.5239 41.1239 52.7583 40.8895 52.89 40.5716 52.89 40.24V34.89H53.64C53.9716 34.89 54.2895 34.7583 54.5239 34.5239 54.7583 34.2895 54.89 33.9716 54.89 33.64 54.89 33.3085 54.7583 32.9906 54.5239 32.7562 54.2895 32.5217 53.9716 32.39 53.64 32.39V32.39zM50.39 32.39H45.81L50.39 27.13V32.39zM32 22.5401C30.4087 22.5401 28.8826 23.1722 27.7574 24.2974 26.6321 25.4227 26 26.9488 26 28.5401V35.4001C26 37.002 26.6364 38.5383 27.7691 39.671 28.9018 40.8037 30.4381 41.4401 32.04 41.4401 33.6419 41.4401 35.1782 40.8037 36.3109 39.671 37.4436 38.5383 38.08 37.002 38.08 35.4001V28.5701C38.0841 27.7729 37.9292 26.9828 37.6245 26.2461 37.3197 25.5094 36.8712 24.8408 36.3052 24.2794 35.7391 23.718 35.0668 23.2751 34.3277 22.9764 33.5885 22.6778 32.7972 22.5294 32 22.5401V22.5401zM35.54 35.4301C35.54 36.369 35.167 37.2694 34.5032 37.9332 33.8393 38.5971 32.9389 38.9701 32 38.9701 31.0611 38.9701 30.1607 38.5971 29.4968 37.9332 28.833 37.2694 28.46 36.369 28.46 35.4301V28.5701C28.46 27.6312 28.833 26.7308 29.4968 26.0669 30.1607 25.403 31.0611 25.0301 32 25.0301 32.9389 25.0301 33.8393 25.403 34.5032 26.0669 35.167 26.7308 35.54 27.6312 35.54 28.5701V35.4301z" class="color000 svgShape"/></svg></svg>